<svg width="51" height="51" viewBox="0 0 51 51" fill="none" xmlns="http://www.w3.org/2000/svg">
<rect width="50.599" height="50.599" rx="13.5937" fill="#10847E"/>
<path d="M25.7962 31.3351C28.4031 31.3351 30.5163 29.222 30.5163 26.6151C30.5163 24.0082 28.4031 21.895 25.7962 21.895C23.1893 21.895 21.0762 24.0082 21.0762 26.6151C21.0762 29.222 23.1893 31.3351 25.7962 31.3351Z" stroke="white" stroke-width="2.26562" stroke-linecap="round" stroke-linejoin="round"/>
<path d="M11.6367 32.5937V20.6363C11.6367 18.8739 11.6367 17.9928 11.9797 17.3197C12.2814 16.7276 12.7628 16.2462 13.3548 15.9445C14.028 15.6015 14.9091 15.6015 16.6714 15.6015H18.3308C18.5242 15.6015 18.6209 15.6015 18.7101 15.5913C19.1757 15.538 19.5932 15.2799 19.8491 14.8874C19.8982 14.8121 19.9414 14.7256 20.0279 14.5526C20.2009 14.2066 20.2874 14.0336 20.3855 13.8832C20.8973 13.0981 21.7324 12.5819 22.6635 12.4753C22.842 12.4548 23.0353 12.4548 23.4222 12.4548H28.1715C28.5584 12.4548 28.7518 12.4548 28.9302 12.4753C29.8613 12.5819 30.6964 13.0981 31.2083 13.8832C31.3063 14.0336 31.3928 14.2067 31.5659 14.5526C31.6523 14.7256 31.6955 14.8121 31.7446 14.8874C32.0006 15.2799 32.418 15.538 32.8836 15.5913C32.9729 15.6015 33.0695 15.6015 33.2631 15.6015H34.9223C36.6846 15.6015 37.5659 15.6015 38.2389 15.9445C38.831 16.2462 39.3124 16.7276 39.614 17.3197C39.957 17.9928 39.957 18.8739 39.957 20.6363V32.5937C39.957 34.356 39.957 35.2373 39.614 35.9103C39.3124 36.5024 38.831 36.9838 38.2389 37.2854C37.5659 37.6284 36.6846 37.6284 34.9223 37.6284H16.6714C14.9091 37.6284 14.028 37.6284 13.3548 37.2854C12.7628 36.9838 12.2814 36.5024 11.9797 35.9103C11.6367 35.2373 11.6367 34.356 11.6367 32.5937Z" stroke="white" stroke-width="2.26562" stroke-linecap="round" stroke-linejoin="round"/>
</svg>
