<svg width="35" height="38" viewBox="0 0 35 38" fill="none" xmlns="http://www.w3.org/2000/svg">
<path fill-rule="evenodd" clip-rule="evenodd" d="M22.8625 0.178712H15.7917C12.5882 0.178677 10.0509 0.178659 8.06509 0.445653C6.02142 0.720403 4.36729 1.29933 3.06279 2.60381C1.75831 3.90831 1.17939 5.56244 0.904637 7.60611C0.637644 9.59189 0.637661 12.1292 0.637696 15.3326V25.8897C0.637696 29.1532 3.02934 31.8582 6.15556 32.3475C6.39606 33.6792 6.85633 34.8159 7.78161 35.7413C8.83083 36.7905 10.1519 37.2418 11.7209 37.4527C13.2321 37.6558 15.1535 37.6558 17.5374 37.6558H22.9582C25.3421 37.6558 27.2635 37.6558 28.7748 37.4527C30.3438 37.2418 31.6647 36.7905 32.7141 35.7413C33.7632 34.6919 34.2145 33.371 34.4254 31.802C34.6285 30.2907 34.6285 28.3693 34.6285 25.9854V17.0784C34.6285 14.6946 34.6285 12.7731 34.4254 11.2619C34.2145 9.6929 33.7632 8.37184 32.7141 7.32263C31.7886 6.39734 30.6519 5.93707 29.3202 5.69657C28.8309 2.57036 26.1259 0.178712 22.8625 0.178712ZM26.5741 5.44497C26.0463 3.90242 24.584 2.79339 22.8625 2.79339H15.89C12.5662 2.79339 10.2048 2.79616 8.41349 3.03701C6.65975 3.27278 5.64936 3.71496 4.91165 4.45267C4.17394 5.19037 3.73177 6.20077 3.49599 7.95451C3.25515 9.74584 3.25237 12.1072 3.25237 15.431V25.8897C3.25237 27.6112 4.36142 29.0735 5.90396 29.6013C5.86702 28.5382 5.86704 27.336 5.86705 25.9854V17.0784C5.86702 14.6946 5.86698 12.7731 6.07016 11.2619C6.28111 9.6929 6.73239 8.37184 7.78161 7.32263C8.83083 6.27341 10.1519 5.82213 11.7209 5.61118C13.2321 5.408 15.1535 5.40803 17.5374 5.40807H22.9582C24.3087 5.40805 25.511 5.40804 26.5741 5.44497ZM9.63047 9.17148C10.1129 8.68906 10.7902 8.37451 12.0693 8.20255C13.3859 8.02552 15.131 8.02275 17.6331 8.02275H22.8625C25.3645 8.02275 27.1096 8.02552 28.4263 8.20255C29.7054 8.37451 30.3826 8.68906 30.8651 9.17148C31.3476 9.65391 31.6621 10.3312 31.8341 11.6103C32.0111 12.927 32.0138 14.672 32.0138 17.1741V25.8897C32.0138 28.3918 32.0111 30.1368 31.8341 31.4536C31.6621 32.7327 31.3476 33.4099 30.8651 33.8924C30.3826 34.3749 29.7054 34.6893 28.4263 34.8614C27.1096 35.0383 25.3645 35.0411 22.8625 35.0411H17.6331C15.131 35.0411 13.3859 35.0383 12.0693 34.8614C10.7902 34.6893 10.1129 34.3749 9.63047 33.8924C9.14804 33.4099 8.83349 32.7327 8.66154 31.4536C8.4845 30.1368 8.48173 28.3918 8.48173 25.8897V17.1741C8.48173 14.672 8.4845 12.927 8.66154 11.6103C8.83349 10.3312 9.14804 9.65391 9.63047 9.17148Z" fill="#10847E"/>
</svg>
