<svg width="51" height="50" viewBox="0 0 51 50" fill="none" xmlns="http://www.w3.org/2000/svg">
<rect x="1.51953" y="1.5" width="47" height="47" rx="23.5" fill="#F62626" fill-opacity="0.1"/>
<rect x="1.51953" y="1.5" width="47" height="47" rx="23.5" stroke="#F62626" stroke-width="3"/>
<path d="M16.4589 34.1972C16.4589 34.7788 16.6895 35.3365 17.0999 35.7477C17.5103 36.159 18.0669 36.39 18.6473 36.39H31.7776C32.358 36.39 32.9146 36.159 33.325 35.7477C33.7355 35.3365 33.966 34.7788 33.966 34.1972V18.8475H16.4589V34.1972ZM28.8598 22.5022C28.8598 22.3083 28.9366 22.1224 29.0734 21.9853C29.2102 21.8483 29.3958 21.7713 29.5892 21.7713C29.7827 21.7713 29.9682 21.8483 30.105 21.9853C30.2418 22.1224 30.3187 22.3083 30.3187 22.5022V32.7353C30.3187 32.9292 30.2418 33.1151 30.105 33.2522C29.9682 33.3892 29.7827 33.4663 29.5892 33.4663C29.3958 33.4663 29.2102 33.3892 29.0734 33.2522C28.9366 33.1151 28.8598 32.9292 28.8598 32.7353V22.5022ZM24.483 22.5022C24.483 22.3083 24.5599 22.1224 24.6967 21.9853C24.8335 21.8483 25.019 21.7713 25.2125 21.7713C25.4059 21.7713 25.5915 21.8483 25.7283 21.9853C25.8651 22.1224 25.9419 22.3083 25.9419 22.5022V32.7353C25.9419 32.9292 25.8651 33.1151 25.7283 33.2522C25.5915 33.3892 25.4059 33.4663 25.2125 33.4663C25.019 33.4663 24.8335 33.3892 24.6967 33.2522C24.5599 33.1151 24.483 32.9292 24.483 32.7353V22.5022ZM20.1062 22.5022C20.1062 22.3083 20.1831 22.1224 20.3199 21.9853C20.4567 21.8483 20.6422 21.7713 20.8357 21.7713C21.0292 21.7713 21.2147 21.8483 21.3515 21.9853C21.4883 22.1224 21.5652 22.3083 21.5652 22.5022V32.7353C21.5652 32.9292 21.4883 33.1151 21.3515 33.2522C21.2147 33.3892 21.0292 33.4663 20.8357 33.4663C20.6422 33.4663 20.4567 33.3892 20.3199 33.2522C20.1831 33.1151 20.1062 32.9292 20.1062 32.7353V22.5022ZM34.6955 14.4619H29.2245L28.7959 13.6076C28.7052 13.425 28.5653 13.2713 28.3922 13.164C28.219 13.0567 28.0194 12.9999 27.8157 13H22.6046C22.4015 12.9992 22.2022 13.0558 22.0296 13.1633C21.8571 13.2707 21.7182 13.4247 21.629 13.6076L21.2004 14.4619H15.7295C15.536 14.4619 15.3505 14.5389 15.2137 14.676C15.0769 14.813 15 14.999 15 15.1928V16.6547C15 16.8486 15.0769 17.0345 15.2137 17.1715C15.3505 17.3086 15.536 17.3856 15.7295 17.3856H34.6955C34.8889 17.3856 35.0745 17.3086 35.2113 17.1715C35.3481 17.0345 35.4249 16.8486 35.4249 16.6547V15.1928C35.4249 14.999 35.3481 14.813 35.2113 14.676C35.0745 14.5389 34.8889 14.4619 34.6955 14.4619Z" fill="#F62626"/>
</svg>
