<svg width="26" height="25" viewBox="0 0 26 25" fill="none" xmlns="http://www.w3.org/2000/svg">
<g clip-path="url(#clip0_243_273)">
<path d="M13.469 15.6247V2.08301M13.469 2.08301L16.594 5.72884M13.469 2.08301L10.344 5.72884" stroke="white" stroke-width="2.5" stroke-linecap="round" stroke-linejoin="round"/>
<path d="M9.30237 22.9168H17.6357C20.582 22.9168 22.0551 22.9168 22.9704 22.0015C23.8857 21.0863 23.8857 19.613 23.8857 16.6668V15.6251C23.8857 12.6789 23.8857 11.2058 22.9704 10.2904C22.17 9.49004 20.943 9.38957 18.6774 9.37695M8.2607 9.37695C5.99505 9.38957 4.76806 9.49004 3.96766 10.2904C3.05237 11.2058 3.05237 12.6789 3.05237 15.6251V16.6668C3.05237 19.613 3.05237 21.0863 3.96766 22.0015C4.27995 22.3138 4.65718 22.5195 5.1357 22.6551" stroke="white" stroke-width="2.5" stroke-linecap="round"/>
</g>
<defs>
<clipPath id="clip0_243_273">
<rect width="25" height="25" fill="white" transform="translate(0.968994)"/>
</clipPath>
</defs>
</svg>
