<svg width="25" height="26" viewBox="0 0 25 26" fill="none" xmlns="http://www.w3.org/2000/svg">
<g clip-path="url(#clip0_57_296)">
<path d="M10.7634 1.41232H9.02729C7.87712 1.41232 6.94396 2.34548 6.94396 3.49566V8.35677C6.94396 9.88888 8.18962 11.1345 9.72173 11.1345H15.2773C16.8094 11.1345 18.0551 9.88888 18.0551 8.35677V3.49566C18.0551 2.34548 17.1219 1.41232 15.9717 1.41232H14.2356V4.88454C14.2356 5.26649 13.9231 5.57899 13.5412 5.57899H11.4578C11.0759 5.57899 10.7634 5.26649 10.7634 4.88454V1.41232ZM2.77729 12.5234C1.24517 12.5234 -0.000488281 13.7691 -0.000488281 15.3012V20.8568C-0.000488281 22.3889 1.24517 23.6345 2.77729 23.6345H9.72173C11.2539 23.6345 12.4995 22.3889 12.4995 20.8568V15.3012C12.4995 13.7691 11.2539 12.5234 9.72173 12.5234H7.98562V15.9957C7.98562 16.3776 7.67312 16.6901 7.29118 16.6901H5.20784C4.8259 16.6901 4.5134 16.3776 4.5134 15.9957V12.5234H2.77729ZM15.2773 23.6345H22.2217C23.7539 23.6345 24.9995 22.3889 24.9995 20.8568V15.3012C24.9995 13.7691 23.7539 12.5234 22.2217 12.5234H20.4856V15.9957C20.4856 16.3776 20.1731 16.6901 19.7912 16.6901H17.7078C17.3259 16.6901 17.0134 16.3776 17.0134 15.9957V12.5234H15.2773C14.6262 12.5234 14.0273 12.7448 13.5542 13.1224C13.7669 13.5738 13.8884 14.0773 13.8884 14.6068V21.5512C13.8884 22.0807 13.7669 22.5842 13.5542 23.0356C14.0273 23.4132 14.6262 23.6345 15.2773 23.6345Z" fill="currentColor"/>
</g>
<defs>
<clipPath id="clip0_57_296">
<rect width="25" height="25" fill="currentColor" transform="translate(-0.000488281 0.0234375)"/>
</clipPath>
</defs>
</svg>
