<svg width="25" height="26" viewBox="0 0 25 26" fill="none" xmlns="http://www.w3.org/2000/svg">
<g clip-path="url(#clip0_57_300)">
<path d="M12.4995 0.0234375C13.3637 0.0234375 14.062 0.72168 14.062 1.58594V3.3291C14.1401 3.33887 14.2133 3.34863 14.2915 3.36328C14.311 3.36816 14.3256 3.36816 14.3452 3.37305L16.6889 3.80273C17.5385 3.95898 18.1 4.77441 17.9438 5.61914C17.7875 6.46387 16.9721 7.03027 16.1274 6.87402L13.8081 6.44922C12.2797 6.22461 10.9321 6.37598 9.98481 6.75195C9.03755 7.12793 8.65669 7.64551 8.5688 8.12402C8.47114 8.64648 8.54438 8.93945 8.62739 9.12012C8.71528 9.31055 8.89594 9.52539 9.25239 9.76465C10.0483 10.2871 11.269 10.6289 12.851 11.0488L12.9926 11.0879C14.3891 11.459 16.0981 11.9082 17.3676 12.7383C18.061 13.1924 18.7153 13.8076 19.1206 14.667C19.5356 15.541 19.6235 16.5176 19.4331 17.5576C19.0961 19.4131 17.8168 20.6533 16.2299 21.3027C15.561 21.5762 14.8334 21.752 14.062 21.8398V23.4609C14.062 24.3252 13.3637 25.0234 12.4995 25.0234C11.6352 25.0234 10.937 24.3252 10.937 23.4609V21.7568C10.9174 21.752 10.893 21.752 10.8735 21.7471H10.8637C9.67231 21.5615 7.7143 21.0488 6.39594 20.4629C5.60981 20.1113 5.25337 19.1885 5.60493 18.4023C5.95649 17.6162 6.87934 17.2598 7.66548 17.6113C8.68598 18.0654 10.3657 18.5146 11.3373 18.666C12.895 18.8955 14.1791 18.7637 15.0483 18.4072C15.8735 18.0703 16.2495 17.582 16.3569 16.9961C16.4497 16.4785 16.3764 16.1807 16.2934 16C16.2006 15.8047 16.02 15.5898 15.6586 15.3506C14.8579 14.8281 13.6323 14.4863 12.0454 14.0664L11.9086 14.0322C10.517 13.6611 8.80805 13.207 7.53852 12.377C6.84516 11.9229 6.19575 11.3027 5.79048 10.4434C5.38032 9.56934 5.29731 8.59277 5.49262 7.55273C5.84419 5.6875 7.24067 4.47656 8.82758 3.84668C9.477 3.58789 10.1899 3.41211 10.937 3.30957V1.58594C10.937 0.72168 11.6352 0.0234375 12.4995 0.0234375Z" fill="currentColor"/>
</g>
<defs>
<clipPath id="clip0_57_300">
<rect width="25" height="25" fill="currentColor" transform="translate(-0.000488281 0.0234375)"/>
</clipPath>
</defs>
</svg>
