<svg width="25" height="26" viewBox="0 0 25 26" fill="none" xmlns="http://www.w3.org/2000/svg">
<g clip-path="url(#clip0_57_292)">
<path d="M24.9908 12.5017C24.9908 13.283 24.3398 13.895 23.6019 13.895H22.2131L22.2434 20.8481C22.2434 20.9653 22.2348 21.0825 22.2217 21.1996V21.8984C22.2217 22.8576 21.4448 23.6345 20.4856 23.6345H19.7912C19.7434 23.6345 19.6957 23.6345 19.648 23.6302C19.5872 23.6345 19.5264 23.6345 19.4657 23.6345H18.0551H17.0134C16.0542 23.6345 15.2773 22.8576 15.2773 21.8984V20.8568V18.079C15.2773 17.3108 14.6566 16.6901 13.8884 16.6901H11.1106C10.3424 16.6901 9.72174 17.3108 9.72174 18.079V20.8568V21.8984C9.72174 22.8576 8.94483 23.6345 7.98562 23.6345H6.94396H5.55941C5.4943 23.6345 5.4292 23.6302 5.3641 23.6259C5.31201 23.6302 5.25993 23.6345 5.20785 23.6345H4.5134C3.5542 23.6345 2.77729 22.8576 2.77729 21.8984V17.0373C2.77729 16.9983 2.77729 16.9549 2.78163 16.9158V13.895H1.3884C0.607151 13.895 -0.000488281 13.2873 -0.000488281 12.5017C-0.000488281 12.1111 0.12972 11.7639 0.43354 11.4601L11.562 1.75955C11.8658 1.45573 12.2131 1.41232 12.5169 1.41232C12.8207 1.41232 13.1679 1.49913 13.4283 1.71614L24.5134 11.4601C24.8606 11.7639 25.0342 12.1111 24.9908 12.5017Z" fill="currentColor"/>
</g>
<defs>
<clipPath id="clip0_57_292">
<rect width="25" height="25" fill="white" transform="translate(-0.000488281 0.0234375)"/>
</clipPath>
</defs>
</svg>
