<svg width="25" height="26" viewBox="0 0 25 26" fill="none" xmlns="http://www.w3.org/2000/svg">
<g clip-path="url(#clip0_57_304)">
<path d="M0 2.45399C0 1.87673 0.46441 1.41232 1.04167 1.41232H3.01649C3.97135 1.41232 4.81771 1.96788 5.21267 2.80121H23.0512C24.1927 2.80121 25.026 3.88628 24.7266 4.98871L22.947 11.599C22.5781 12.9618 21.3411 13.9123 19.9306 13.9123H7.40885L7.64323 15.1493C7.73872 15.6398 8.1684 15.9957 8.66753 15.9957H21.1806C21.7578 15.9957 22.2222 16.4601 22.2222 17.0373C22.2222 17.6146 21.7578 18.079 21.1806 18.079H8.66753C7.1658 18.079 5.87674 17.0113 5.59896 15.5399L3.35938 3.77777C3.32899 3.61284 3.18576 3.49566 3.01649 3.49566H1.04167C0.46441 3.49566 0 3.03125 0 2.45399ZM5.55556 21.5512C5.55556 21.2776 5.60944 21.0067 5.71414 20.754C5.81884 20.5012 5.97229 20.2715 6.16575 20.0781C6.3592 19.8846 6.58887 19.7312 6.84163 19.6265C7.09439 19.5218 7.3653 19.4679 7.63889 19.4679C7.91248 19.4679 8.18338 19.5218 8.43615 19.6265C8.68891 19.7312 8.91857 19.8846 9.11203 20.0781C9.30548 20.2715 9.45894 20.5012 9.56364 20.754C9.66833 21.0067 9.72222 21.2776 9.72222 21.5512C9.72222 21.8248 9.66833 22.0957 9.56364 22.3485C9.45894 22.6012 9.30548 22.8309 9.11203 23.0243C8.91857 23.2178 8.68891 23.3713 8.43615 23.476C8.18338 23.5807 7.91248 23.6345 7.63889 23.6345C7.3653 23.6345 7.09439 23.5807 6.84163 23.476C6.58887 23.3713 6.3592 23.2178 6.16575 23.0243C5.97229 22.8309 5.81884 22.6012 5.71414 22.3485C5.60944 22.0957 5.55556 21.8248 5.55556 21.5512ZM20.1389 19.4679C20.6914 19.4679 21.2213 19.6874 21.612 20.0781C22.0027 20.4688 22.2222 20.9987 22.2222 21.5512C22.2222 22.1037 22.0027 22.6336 21.612 23.0243C21.2213 23.415 20.6914 23.6345 20.1389 23.6345C19.5864 23.6345 19.0564 23.415 18.6657 23.0243C18.275 22.6336 18.0556 22.1037 18.0556 21.5512C18.0556 20.9987 18.275 20.4688 18.6657 20.0781C19.0564 19.6874 19.5864 19.4679 20.1389 19.4679Z" fill="currentColor"/>
</g>
<defs>
<clipPath id="clip0_57_304">
<rect width="25" height="25" fill="currentColor" transform="translate(0 0.0234375)"/>
</clipPath>
</defs>
</svg>
