<svg width="48" height="48" viewBox="0 0 48 48" fill="none" xmlns="http://www.w3.org/2000/svg">
<g clip-path="url(#clip0_57_308)">
<path d="M37.4062 36.0188C35.3344 32.4188 31.4438 30 27 30H21C16.5562 30 12.6656 32.4188 10.5938 36.0188C13.8938 39.6938 18.675 42 24 42C29.325 42 34.1063 39.6844 37.4062 36.0188ZM0 24C0 17.6348 2.52856 11.5303 7.02944 7.02944C11.5303 2.52856 17.6348 0 24 0C30.3652 0 36.4697 2.52856 40.9706 7.02944C45.4714 11.5303 48 17.6348 48 24C48 30.3652 45.4714 36.4697 40.9706 40.9706C36.4697 45.4714 30.3652 48 24 48C17.6348 48 11.5303 45.4714 7.02944 40.9706C2.52856 36.4697 0 30.3652 0 24ZM24 25.5C25.7902 25.5 27.5071 24.7888 28.773 23.523C30.0388 22.2571 30.75 20.5402 30.75 18.75C30.75 16.9598 30.0388 15.2429 28.773 13.977C27.5071 12.7112 25.7902 12 24 12C22.2098 12 20.4929 12.7112 19.227 13.977C17.9612 15.2429 17.25 16.9598 17.25 18.75C17.25 20.5402 17.9612 22.2571 19.227 23.523C20.4929 24.7888 22.2098 25.5 24 25.5Z" fill="white"/>
</g>
<defs>
<clipPath id="clip0_57_308">
<rect width="48" height="48" fill="white"/>
</clipPath>
</defs>
</svg>
