<svg width="30" height="40" viewBox="0 0 30 40" fill="none" xmlns="http://www.w3.org/2000/svg">
<path d="M23 32.1875C23.5156 32.1875 23.9375 31.7656 23.9375 31.25V14.375H19.25C18.2129 14.375 17.375 13.5371 17.375 12.5V7.8125H8C7.48438 7.8125 7.0625 8.23438 7.0625 8.75V31.25C7.0625 31.7656 7.48438 32.1875 8 32.1875H23ZM4.25 8.75C4.25 6.68164 5.93164 5 8 5H17.6973C18.6934 5 19.6484 5.39258 20.3516 6.0957L25.6543 11.3984C26.3574 12.1016 26.75 13.0566 26.75 14.0527V31.25C26.75 33.3184 25.0684 35 23 35H8C5.93164 35 4.25 33.3184 4.25 31.25V8.75Z" fill="#10847E"/>
</svg>
