<svg width="32" height="32" viewBox="0 0 32 32" fill="none" xmlns="http://www.w3.org/2000/svg">
<path d="M16.5 4C17.3643 4 18.0625 4.69824 18.0625 5.5625V7.25684C21.9883 7.91113 25.0889 11.0117 25.7432 14.9375H27.4375C28.3018 14.9375 29 15.6357 29 16.5C29 17.3643 28.3018 18.0625 27.4375 18.0625H25.7432C25.0889 21.9883 21.9883 25.0889 18.0625 25.7432V27.4375C18.0625 28.3018 17.3643 29 16.5 29C15.6357 29 14.9375 28.3018 14.9375 27.4375V25.7432C11.0117 25.0889 7.91113 21.9883 7.25684 18.0625H5.5625C4.69824 18.0625 4 17.3643 4 16.5C4 15.6357 4.69824 14.9375 5.5625 14.9375H7.25684C7.91113 11.0117 11.0117 7.91113 14.9375 7.25684V5.5625C14.9375 4.69824 15.6357 4 16.5 4ZM10.25 16.5C10.25 18.1576 10.9085 19.7473 12.0806 20.9194C13.2527 22.0915 14.8424 22.75 16.5 22.75C18.1576 22.75 19.7473 22.0915 20.9194 20.9194C22.0915 19.7473 22.75 18.1576 22.75 16.5C22.75 14.8424 22.0915 13.2527 20.9194 12.0806C19.7473 10.9085 18.1576 10.25 16.5 10.25C14.8424 10.25 13.2527 10.9085 12.0806 12.0806C10.9085 13.2527 10.25 14.8424 10.25 16.5ZM16.5 12.5938C17.536 12.5938 18.5296 13.0053 19.2621 13.7379C19.9947 14.4704 20.4062 15.464 20.4062 16.5C20.4062 17.536 19.9947 18.5296 19.2621 19.2621C18.5296 19.9947 17.536 20.4062 16.5 20.4062C15.464 20.4062 14.4704 19.9947 13.7379 19.2621C13.0053 18.5296 12.5938 17.536 12.5938 16.5C12.5938 15.464 13.0053 14.4704 13.7379 13.7379C14.4704 13.0053 15.464 12.5938 16.5 12.5938Z" fill="#10847E"/>
</svg>
