<svg width="37" height="38" viewBox="0 0 37 38" fill="none" xmlns="http://www.w3.org/2000/svg">
<path d="M18.505 0.494995C14.8451 0.494995 11.2673 1.58029 8.22418 3.61365C5.18105 5.647 2.80922 8.53709 1.40862 11.9184C0.00801792 15.2998 -0.358443 19.0205 0.355577 22.6101C1.0696 26.1998 2.83203 29.497 5.42 32.085C8.00797 34.673 11.3052 36.4354 14.8949 37.1494C18.4845 37.8634 22.2052 37.497 25.5866 36.0964C28.9679 34.6958 31.858 32.3239 33.8913 29.2808C35.9247 26.2377 37.01 22.6599 37.01 19C37.01 16.5699 36.5314 14.1636 35.6014 11.9184C34.6714 9.67331 33.3084 7.63333 31.59 5.91498C29.8717 4.19664 27.8317 2.83357 25.5866 1.9036C23.3414 0.973641 20.9351 0.494995 18.505 0.494995ZM18.505 33.804C15.5771 33.804 12.7148 32.9357 10.2803 31.3091C7.84584 29.6824 5.94837 27.3703 4.82789 24.6652C3.70742 21.9602 3.41425 18.9836 3.98546 16.1119C4.55668 13.2402 5.96662 10.6024 8.037 8.53199C10.1074 6.46161 12.7452 5.05166 15.6169 4.48045C18.4886 3.90923 21.4652 4.2024 24.1702 5.32288C26.8753 6.44336 29.1874 8.34083 30.8141 10.7753C32.4408 13.2098 33.309 16.072 33.309 19C33.309 22.9263 31.7493 26.6917 28.973 29.468C26.1967 32.2443 22.4313 33.804 18.505 33.804ZM25.907 17.1495H11.103C10.6122 17.1495 10.1415 17.3445 9.7945 17.6915C9.44747 18.0385 9.25251 18.5092 9.25251 19C9.25251 19.4908 9.44747 19.9615 9.7945 20.3085C10.1415 20.6555 10.6122 20.8505 11.103 20.8505H25.907C26.3978 20.8505 26.8685 20.6555 27.2155 20.3085C27.5625 19.9615 27.7575 19.4908 27.7575 19C27.7575 18.5092 27.5625 18.0385 27.2155 17.6915C26.8685 17.3445 26.3978 17.1495 25.907 17.1495Z" fill="black" fill-opacity="0.5"/>
</svg>
