<svg width="23" height="23" viewBox="0 0 23 23" fill="none" xmlns="http://www.w3.org/2000/svg">
<path d="M11.505 0C9.22953 0 7.00516 0.674756 5.11317 1.93894C3.22118 3.20313 1.74656 4.99996 0.875771 7.10223C0.00498493 9.20449 -0.222852 11.5178 0.22107 13.7495C0.664993 15.9813 1.76074 18.0313 3.36974 19.6403C4.97874 21.2493 7.02874 22.345 9.26049 22.7889C11.4922 23.2329 13.8055 23.005 15.9078 22.1342C18.01 21.2634 19.8069 19.7888 21.0711 17.8968C22.3352 16.0048 23.01 13.7805 23.01 11.505C23.01 9.99414 22.7124 8.49808 22.1342 7.10223C21.5561 5.70638 20.7086 4.43807 19.6403 3.36974C18.5719 2.3014 17.3036 1.45395 15.9078 0.875766C14.5119 0.297586 13.0159 0 11.505 0ZM11.505 20.709C9.68462 20.709 7.90512 20.1692 6.39153 19.1578C4.87794 18.1465 3.69825 16.709 3.00162 15.0272C2.30499 13.3454 2.12272 11.4948 2.47786 9.70939C2.833 7.92399 3.70959 6.28399 4.99679 4.99679C6.284 3.70959 7.92399 2.83299 9.70939 2.47785C11.4948 2.12271 13.3454 2.30498 15.0272 3.00161C16.709 3.69824 18.1465 4.87794 19.1578 6.39153C20.1692 7.90512 20.709 9.68462 20.709 11.505C20.709 13.9461 19.7393 16.2871 18.0132 18.0132C16.2871 19.7393 13.9461 20.709 11.505 20.709ZM16.107 10.3545H6.903C6.59787 10.3545 6.30524 10.4757 6.08948 10.6915C5.87372 10.9072 5.7525 11.1999 5.7525 11.505C5.7525 11.8101 5.87372 12.1028 6.08948 12.3185C6.30524 12.5343 6.59787 12.6555 6.903 12.6555H16.107C16.4121 12.6555 16.7048 12.5343 16.9205 12.3185C17.1363 12.1028 17.2575 11.8101 17.2575 11.505C17.2575 11.1999 17.1363 10.9072 16.9205 10.6915C16.7048 10.4757 16.4121 10.3545 16.107 10.3545Z" fill="black" fill-opacity="0.5"/>
</svg>
