<svg width="23" height="23" viewBox="0 0 23 23" fill="none" xmlns="http://www.w3.org/2000/svg">
<path d="M0.708756 11.6888C-0.306471 12.2682 -0.212135 13.8135 0.870474 14.2628L7.17297 16.8907V21.5311C7.17297 22.3441 7.82882 23 8.6419 23C9.07764 23 9.49092 22.8068 9.76943 22.4699L12.5546 19.1323L18.1203 21.4502C18.9694 21.8051 19.9531 21.2481 20.0924 20.3406L22.9674 1.65328C23.0527 1.10973 22.8146 0.561691 22.3609 0.251732C21.9072 -0.0582262 21.3143 -0.0851792 20.8336 0.188842L0.708756 11.6888ZM3.04917 12.8343L18.3899 4.07006L8.5251 15.0938L8.57901 15.1387L3.04917 12.8343ZM18.1024 19.1098L10.6184 15.9877L20.2361 5.23802L18.1024 19.1098Z" fill="white"/>
</svg>
