<svg width="currentWidth" height="21" viewBox="0 0 24 21" fill="currentColor" xmlns="http://www.w3.org/2000/svg">
<path d="M16.5 3H19.5C20.3297 3 21 3.67031 21 4.5V16.5C21 17.3297 20.3297 18 19.5 18H16.5C15.6703 18 15 18.6703 15 19.5C15 20.3297 15.6703 21 16.5 21H19.5C21.9844 21 24 18.9844 24 16.5V4.5C24 2.01562 21.9844 0 19.5 0H16.5C15.6703 0 15 0.670312 15 1.5C15 2.32969 15.6703 3 16.5 3ZM16.0594 11.5594C16.6453 10.9734 16.6453 10.0219 16.0594 9.43594L10.0594 3.43594C9.47344 2.85 8.52188 2.85 7.93594 3.43594C7.35 4.02188 7.35 4.97344 7.93594 5.55938L11.3766 9H1.5C0.670312 9 0 9.67031 0 10.5C0 11.3297 0.670312 12 1.5 12H11.3766L7.93594 15.4406C7.35 16.0266 7.35 16.9781 7.93594 17.5641C8.52188 18.15 9.47344 18.15 10.0594 17.5641L16.0594 11.5641V11.5594Z" fill="currentColor"/>
</svg>
